<svg xmlns="http://www.w3.org/2000/svg" viewBox="0 0 240 60" width="100%" height="100%">
  <!-- Waterloo Shield -->
  <g transform="translate(15, 10)">
    <!-- Shield shape -->
    <path d="M0,0 L30,0 C30,18 25,32 15,40 C5,32 0,18 0,0 Z" fill="#FFD200" />
    <path d="M3,3 L27,3 C27,17 22,29 15,36 C8,29 3,17 3,3 Z" fill="#000000" />
    <!-- Chevron -->
    <path d="M5,22 L15,10 L25,22 L25,26 L15,14 L5,26 Z" fill="#FFD200" />
    <!-- Simplified eagles -->
    <circle cx="9" cy="8" r="2" fill="#FFD200" />
    <circle cx="21" cy="8" r="2" fill="#FFD200" />
    <!-- Simplified lion -->
    <path d="M12,28 H18 V30 H12 Z" fill="#FFD200" />
  </g>
  <text x="60" y="28" font-family="system-ui, -apple-system, sans-serif" font-size="15" font-weight="800" fill="currentColor" letter-spacing="-0.01em">UNIVERSITY OF</text>
  <text x="60" y="46" font-family="system-ui, -apple-system, sans-serif" font-size="18" font-weight="900" fill="currentColor" letter-spacing="0.05em">WATERLOO</text>
</svg>
