<svg xmlns="http://www.w3.org/2000/svg" viewBox="0 0 240 60" width="100%" height="100%">
  <!-- Stylized Fleur-de-lis / Quebec Icon -->
  <g fill="#095797">
    <!-- Center petal -->
    <path d="M30,12 C32,20 37,24 37,29 C37,36 30,39 30,48 C30,39 23,36 23,29 C23,20 28,12 30,12 Z" />
    <!-- Left petal -->
    <path d="M29,32 C23,32 17,29 14,35 C13,37 17,39 21,39 C25,39 27,35 29,34 Z" />
    <!-- Right petal -->
    <path d="M31,32 C37,32 43,29 46,35 C47,37 43,39 39,39 C35,39 33,35 31,34 Z" />
    <!-- Band -->
    <path d="M22,41 Q30,43 38,41 L38,43 Q30,45 22,43 Z" />
  </g>
  <text x="65" y="32" font-family="system-ui, -apple-system, sans-serif" font-size="18" font-weight="800" letter-spacing="0.05em" fill="currentColor">FRQNT</text>
  <text x="65" y="46" font-family="system-ui, -apple-system, sans-serif" font-size="10" font-weight="600" letter-spacing="0.05em" fill="currentColor" opacity="0.8">Québec</text>
</svg>
